<svg width="94" height="22" viewBox="0 0 94 22" fill="none" xmlns="http://www.w3.org/2000/svg">
<path d="M24.335 21.7002H19.0654L17.1387 17.0498H7.08008L5.14648 21.7002H0L9.67188 0H14.6318L24.335 21.7002ZM35.9795 0C37.9219 1.29984e-05 39.5957 0.320391 41.001 0.960938C42.4063 1.58094 43.4922 2.4802 44.2568 3.6582C45.0214 4.83613 45.4033 6.24152 45.4033 7.87402C45.4033 9.48579 45.0213 10.8807 44.2568 12.0586C43.4922 13.2366 42.4063 14.1464 41.001 14.7871C39.5957 15.407 37.9219 15.7168 35.9795 15.7168H31.6084V21.7002H26.5859V0H35.9795ZM69.3818 21.7002H64.1123L62.1855 17.0498H52.127L50.1934 21.7002H45.0469L54.7188 0H59.6787L69.3818 21.7002ZM81.4912 0C83.8472 0 85.9247 0.454924 87.7227 1.36426C89.5205 2.25291 90.9259 3.50336 91.9385 5.11523C92.951 6.72708 93.457 8.63857 93.457 10.8496C93.457 13.0402 92.9511 14.9523 91.9385 16.585C90.9259 18.1969 89.5205 19.4579 87.7227 20.3672C85.9247 21.2559 83.8472 21.7002 81.4912 21.7002H71.6328V0H81.4912ZM76.6553 17.5771H81.2432C82.6897 17.5771 83.9402 17.3087 84.9941 16.7715C86.0688 16.2135 86.8959 15.4277 87.4746 14.415C88.0739 13.4024 88.373 12.2136 88.373 10.8496C88.373 9.46524 88.0738 8.27701 87.4746 7.28516C86.8959 6.27249 86.0688 5.49729 84.9941 4.95996C83.9402 4.402 82.6898 4.12305 81.2432 4.12305H76.6553V17.5771ZM8.66602 13.2373H15.5596L12.1191 4.93164L8.66602 13.2373ZM53.7129 13.2373H60.6064L57.166 4.93164L53.7129 13.2373ZM31.6084 11.625H35.7002C37.2502 11.625 38.4082 11.2941 39.1729 10.6328C39.9373 9.97151 40.3193 9.05182 40.3193 7.87402C40.3193 6.6755 39.9373 5.7453 39.1729 5.08398C38.4082 4.42265 37.2502 4.0918 35.7002 4.0918H31.6084V11.625Z" fill="#112F30"/>
</svg>
