<svg width="31" height="30" viewBox="0 0 31 30" fill="none" xmlns="http://www.w3.org/2000/svg">
<path fill-rule="evenodd" clip-rule="evenodd" d="M16.5 14H30.4999V2.81639C30.4999 1.26953 29.2304 0 27.6835 0H16.4999L16.5 14ZM0.500067 14H14.5V6.6598e-05H3.31639C1.76953 6.6598e-05 0.5 1.26959 0.5 2.81645L0.500067 14ZM14.5 16H0.500067V27.1836C0.500067 28.7305 1.76959 30 3.31645 30H14.5001L14.5 16ZM30.4999 16H16.5V29.9999H27.6836C29.2305 29.9999 30.5 28.7304 30.5 27.1835L30.4999 16ZM6.50004 3.89205C6.50004 2.57566 8.50003 2.57566 8.50003 3.89205V6.00011H10.6081C11.9245 6.00011 11.9245 8.0001 10.6081 8.0001H8.50003V10.1082C8.50003 11.4246 6.50004 11.4246 6.50004 10.1082V8.0001H4.39198C3.07559 8.0001 3.07559 6.00011 4.39198 6.00011H6.50004V3.89205ZM20.392 8.00003C19.0756 8.00003 19.0756 6.00004 20.392 6.00004H26.6093C27.9257 6.00004 27.9257 8.00003 26.6093 8.00003H20.392ZM8.99103 20.095C9.92202 19.164 11.3361 20.578 10.4051 21.509L8.9142 22.9999L10.4051 24.4908C11.3361 25.4218 9.92202 26.8359 8.99103 25.9049L7.50014 24.414L6.00924 25.9049C5.07825 26.8359 3.66419 25.4218 4.59518 24.4908L6.08608 22.9999L4.59518 21.509C3.66419 20.578 5.07825 19.164 6.00924 20.095L7.50014 21.5859L8.99103 20.095ZM21.534 26.2396C20.2176 26.2396 20.2176 24.2396 21.534 24.2396H25.465C26.7813 24.2396 26.7813 26.2396 25.465 26.2396H21.534ZM21.534 21.7603C20.2176 21.7603 20.2176 19.7603 21.534 19.7603H25.465C26.7813 19.7603 26.7813 21.7603 25.465 21.7603H21.534Z" fill="#112F30"/>
</svg>
